<svg width="36" height="23" viewBox="0 0 36 23" fill="none" xmlns="http://www.w3.org/2000/svg">
<path d="M10.4716 0.246338C11.5101 0.246338 12.4707 0.327601 13.3483 0.56814C14.1447 0.714488 14.9049 1.01481 15.5863 1.45229C16.2267 1.85373 16.7061 2.41769 17.0247 3.14094C17.3448 3.86418 17.5041 4.74995 17.5041 5.71373C17.5041 6.84004 17.2652 7.80382 16.7061 8.52707C16.2267 9.25194 15.427 9.89392 14.4681 10.3766C15.8268 10.7797 16.8654 11.5029 17.5041 12.4667C18.1445 13.4321 18.5443 14.6381 18.5443 16.0049C18.5443 17.1312 18.3037 18.095 17.9039 18.8995C17.5041 19.704 16.8654 20.4273 16.1454 20.91C15.3633 21.4274 14.4987 21.8077 13.5888 22.0347C12.6299 22.2768 11.671 22.4377 10.7121 22.4377H0V0.246338H10.4716ZM9.83123 9.25031C10.7105 9.25031 11.4305 9.00977 11.9896 8.60833C12.5487 8.20689 12.7892 7.48202 12.7892 6.59788C12.7892 6.11517 12.708 5.63247 12.5487 5.31229C12.3894 4.99049 12.1489 4.74832 11.8303 4.50778C11.5101 4.34688 11.19 4.18598 10.7901 4.10634C10.3903 4.02508 9.99214 4.02508 9.51106 4.02508H4.8758V9.25194H9.83286L9.83123 9.25031ZM10.0718 18.7386C10.5512 18.7386 11.0307 18.6573 11.4305 18.5777C11.8342 18.5009 12.216 18.3361 12.5487 18.095C12.8744 17.8597 13.1468 17.5585 13.3483 17.2109C13.5076 16.8094 13.6685 16.3267 13.6685 15.7644C13.6685 14.6381 13.3483 13.8336 12.7096 13.2712C12.0692 12.7885 11.19 12.548 10.1514 12.548H4.8758V18.7402L10.0718 18.7386ZM25.4988 18.6573C26.1375 19.301 27.0964 19.6228 28.3755 19.6228C29.2548 19.6228 30.0544 19.3822 30.6931 18.9808C31.3335 18.4981 31.7333 18.0154 31.8926 17.5327H35.8095C35.1691 19.4619 34.2102 20.8287 32.9328 21.7128C31.6521 22.5174 30.1341 23.0001 28.2959 23.0001C27.1198 23.0036 25.9536 22.7853 24.8584 22.3565C23.8731 21.9868 22.9943 21.3793 22.3003 20.5882C21.558 19.848 21.0093 18.9365 20.7026 17.9341C20.3028 16.8891 20.1419 15.7644 20.1419 14.4772C20.1419 13.2712 20.3028 12.1465 20.7026 11.0999C21.087 10.0923 21.6558 9.16528 22.3799 8.36617C23.0999 7.64292 23.9792 7.00094 24.9381 6.59788C26.0054 6.16891 27.1456 5.95036 28.2959 5.95427C29.6546 5.95427 30.854 6.19644 31.8926 6.75878C32.9328 7.32112 33.7308 7.96472 34.3711 8.93013C35.0243 9.8574 35.5111 10.8913 35.8095 11.9856C35.9688 13.1103 36.0484 14.2366 35.9688 15.5222H24.379C24.379 16.8094 24.8584 18.0154 25.4988 18.659V18.6573ZM30.5339 10.2157C29.9748 9.65338 29.0955 9.33157 28.0553 9.33157C27.4454 9.32243 26.8423 9.46012 26.2968 9.73301C25.8173 9.97518 25.4988 10.297 25.1786 10.6188C24.8844 10.9296 24.6897 11.3213 24.6195 11.7435C24.5383 12.1465 24.4586 12.4667 24.4586 12.7885H31.6521C31.4928 11.5826 31.093 10.7797 30.5339 10.2157ZM23.4997 1.77409H32.4517V3.94544H23.5013V1.77409H23.4997Z" fill="#666666"/>
</svg>
