<svg width="48" height="44" viewBox="0 0 48 44" fill="none" xmlns="http://www.w3.org/2000/svg">
<g clip-path="url(#clip0_30_7)">
<path d="M43.2919 6.7246C43.2143 6.93223 36.0061 20.6022 35.7926 20.9473C35.7618 20.918 35.7267 20.8961 35.7048 20.8654C34.969 19.779 34.2348 18.6926 33.5005 17.6062C33.4815 17.5769 33.4683 17.5448 33.4434 17.4965C34.0022 16.4379 34.5639 15.3734 35.127 14.3104C35.6858 13.2532 36.246 12.1961 36.8033 11.1389C37.365 10.0759 37.9296 9.01292 38.4942 7.93529C38.3918 7.87388 38.3113 7.8227 38.228 7.77445C35.4386 6.18067 32.4751 5.03578 29.3376 4.34417C28.4468 4.14823 27.5458 3.99909 26.6389 3.89089C25.457 3.75052 24.2722 3.67887 23.083 3.69496C22.3034 3.70519 21.5253 3.75491 20.7471 3.83387C16.5389 4.26229 12.6656 5.66891 9.04101 7.81247C8.98104 7.84902 8.92253 7.8885 8.85818 7.92944C8.85818 8.03618 8.924 8.11368 8.96788 8.19702C9.74312 9.6709 10.5198 11.1448 11.2951 12.6187C15.357 20.3317 19.4204 28.0447 23.4824 35.7577C23.535 35.8571 23.5906 35.9566 23.6623 36.0838C24.1069 35.2693 24.518 34.4754 24.9363 33.6858C25.3517 32.9035 25.7657 32.1198 26.1796 31.3361C26.5979 30.545 27.0163 29.754 27.4346 28.9629C27.8486 28.1792 28.264 27.3969 28.6779 26.6132C29.0963 25.8222 29.5146 25.0326 29.9344 24.2372C30.047 24.262 30.0719 24.3571 30.1187 24.4258C30.8106 25.4449 31.501 26.4655 32.1914 27.4861C32.2308 27.5446 32.2645 27.6046 32.3069 27.6748C29.4341 33.1126 26.5628 38.5476 23.6828 44C23.5848 43.9298 23.5584 43.8363 23.516 43.7573C22.8914 42.5744 22.2683 41.39 21.6452 40.2071C17.3097 31.9765 12.9728 23.7473 8.63731 15.5167C7.1351 12.6625 5.63143 9.80981 4.12923 6.95563C4.09266 6.88544 4.05756 6.81379 4.01514 6.72753C4.05024 6.69243 4.08242 6.65295 4.12191 6.62371C7.09853 4.46991 10.296 2.73723 13.7875 1.57041C15.3102 1.06157 16.8651 0.672626 18.4492 0.406509C19.2098 0.279299 19.9748 0.187182 20.7427 0.115535C22.1045 -0.0116752 23.4692 -0.0233727 24.8354 0.0292659C25.5799 0.0585096 26.3215 0.12577 27.0602 0.216425C32.0626 0.830542 36.6877 2.5179 40.9896 5.11912C41.7253 5.56363 42.4435 6.03737 43.1178 6.574C43.1778 6.62371 43.2363 6.67635 43.2919 6.7246Z" fill="white"/>
<path d="M44.579 7.22613C45.5122 8.16485 46.4206 9.07141 47.3318 9.99404C43.6473 16.9877 39.9686 23.9696 36.2854 30.9574C36.1816 30.8989 36.1436 30.8068 36.0924 30.7293C34.9792 29.0858 33.8676 27.4408 32.7559 25.7973C29.7866 21.4078 26.8188 17.0184 23.8495 12.6304C23.7954 12.5499 23.7383 12.4724 23.6769 12.3847C23.5833 12.449 23.5423 12.5382 23.4882 12.6157C22.4877 14.0896 21.4887 15.565 20.4896 17.0388C19.5447 18.4323 18.5998 19.8258 17.6549 21.2192C17.6052 21.2923 17.5525 21.3625 17.4998 21.4371C17.3697 21.2602 15.7431 18.1969 15.55 17.7685C15.55 17.7597 15.55 17.7509 15.5515 17.7422C15.553 17.7334 15.5544 17.7231 15.5588 17.7173C18.2356 13.7621 20.9138 9.80688 23.5906 5.85168C23.6052 5.82975 23.6257 5.8122 23.6549 5.78149C23.7412 5.83267 23.7793 5.92333 23.829 5.9979C24.6847 7.25976 25.5389 8.52162 26.3917 9.78495C29.4853 14.3572 32.5775 18.9309 35.6711 23.5032C35.7252 23.5836 35.7823 23.6611 35.8349 23.7371C35.9359 23.7254 35.9461 23.6421 35.9768 23.585C36.3498 22.8803 36.7199 22.174 37.0914 21.4678C39.5297 16.8254 41.9681 12.1815 44.4064 7.53904C44.4576 7.44546 44.5103 7.35334 44.579 7.22613Z" fill="white"/>
<path d="M13.3897 27.5855C12.6056 28.748 11.8348 29.8943 11.064 31.0319C10.9601 31.0085 10.9484 30.9296 10.9162 30.8711C10.5286 30.1341 10.1424 29.3957 9.75629 28.6588C6.55002 22.5264 3.34376 16.3955 0.136032 10.2645C0.0906881 10.1797 0.0497322 10.092 0 9.99111C0.896642 9.07724 1.7889 8.16631 2.68554 7.25244C2.78793 7.29631 2.80548 7.38989 2.84351 7.463C3.37155 8.46605 3.89813 9.47057 4.4247 10.4751C7.35598 16.0694 10.2887 21.6652 13.22 27.2595C13.2741 27.3618 13.3268 27.4627 13.3897 27.5855Z" fill="white"/>
</g>
<defs>
<clipPath id="clip0_30_7">
<rect width="47.3333" height="44" fill="white"/>
</clipPath>
</defs>
</svg>
