<svg width="36" height="35" viewBox="0 0 36 35" fill="none" xmlns="http://www.w3.org/2000/svg">
<path d="M0 4.59477C0 3.43645 0.405417 2.48085 1.21622 1.72798C2.02702 0.975069 3.08109 0.598633 4.37838 0.598633C5.65252 0.598633 6.68339 0.969266 7.47104 1.7106C8.28184 2.47508 8.68726 3.4712 8.68726 4.69902C8.68726 5.81099 8.29345 6.73761 7.50579 7.47894C6.69499 8.24342 5.62934 8.62566 4.30888 8.62566H4.27413C2.99999 8.62566 1.96912 8.24342 1.18147 7.47894C0.393811 6.71446 0 5.75306 0 4.59477ZM0.451737 35.0002V11.7878H8.16602V35.0002H0.451737ZM12.4402 35.0002H20.1544V22.0388C20.1544 21.228 20.2471 20.6025 20.4324 20.1623C20.7567 19.3747 21.249 18.7086 21.9093 18.1643C22.5695 17.6199 23.3977 17.3477 24.3938 17.3477C26.9884 17.3477 28.2857 19.0967 28.2857 22.5948V35.0002H36V21.6913C36 18.2627 35.1892 15.6623 33.5676 13.8901C31.9459 12.1179 29.8031 11.2318 27.139 11.2318C24.1506 11.2318 21.8224 12.5176 20.1544 15.089V15.1585H20.1197L20.1544 15.089V11.7878H12.4402C12.4865 12.5291 12.5097 14.8341 12.5097 18.7029C12.5097 22.5716 12.4865 28.004 12.4402 35.0002Z" fill="#666666"/>
</svg>
