<svg width="36" height="36" viewBox="0 0 36 36" fill="none" xmlns="http://www.w3.org/2000/svg">
<path d="M35.8991 10.5781C35.8126 8.66133 35.5028 7.34988 35.0632 6.20416C34.6021 5.02242 33.9896 4.01361 32.988 3.01922C31.9864 2.02482 30.9848 1.39792 29.803 0.943955C28.6573 0.497198 27.3459 0.194556 25.4291 0.108086C23.5052 0.0216173 22.8927 0 18.0072 0C13.1145 0 12.502 0.0216173 10.5853 0.108086C8.66853 0.194556 7.35709 0.504404 6.21137 0.943955C5.02242 1.40512 4.01361 2.01761 3.01922 3.01922C2.02482 4.02082 1.39792 5.02242 0.943955 6.20416C0.504403 7.34988 0.194556 8.66133 0.108086 10.5781C0.0216173 12.502 0 13.1145 0 18C0 22.8927 0.0216173 23.5052 0.108086 25.4219C0.194556 27.3387 0.504403 28.6501 0.943955 29.7958C1.40512 30.9776 2.01761 31.9864 3.01922 32.9808C4.01361 33.9824 5.02242 34.6021 6.20416 35.056C7.34988 35.5028 8.66133 35.8054 10.5781 35.8919C12.502 35.9784 13.1145 36 18 36C22.8927 36 23.5052 35.9784 25.4219 35.8919C27.3387 35.8054 28.6501 35.4956 29.7958 35.056C30.9776 34.5949 31.9864 33.9824 32.9808 32.9808C33.9752 31.9792 34.6021 30.9776 35.056 29.7958C35.5028 28.6501 35.8054 27.3387 35.8919 25.4219C35.9784 23.498 36 22.8855 36 18C36 13.1145 35.9856 12.4948 35.8991 10.5781ZM32.6637 25.2778C32.5845 27.036 32.289 27.9944 32.044 28.6213C31.7198 29.4572 31.3235 30.0625 30.6894 30.6966C30.0552 31.3307 29.4572 31.7126 28.6141 32.0512C27.98 32.2962 27.0216 32.5917 25.2706 32.6709C23.3755 32.7574 22.8062 32.779 17.9928 32.779C13.1793 32.779 12.6101 32.7574 10.715 32.6709C8.95677 32.5917 7.9984 32.2962 7.3715 32.0512C6.53563 31.727 5.93034 31.3307 5.29624 30.6966C4.66213 30.0625 4.28022 29.4644 3.94155 28.6213C3.69656 27.9872 3.40112 27.0288 3.32186 25.2778C3.23539 23.3827 3.21377 22.8135 3.21377 18C3.21377 13.1866 3.23539 12.6173 3.32186 10.7222C3.40112 8.96397 3.69656 8.0056 3.94155 7.3787C4.26581 6.54283 4.66213 5.93755 5.29624 5.30344C5.93034 4.66934 6.52842 4.28743 7.3715 3.94876C8.0056 3.70376 8.96397 3.40833 10.715 3.32906C12.6101 3.24259 13.1793 3.22098 17.9928 3.22098C22.8062 3.22098 23.3755 3.24259 25.2706 3.32906C27.0288 3.40833 27.9872 3.70376 28.6141 3.94876C29.45 4.27302 30.0552 4.66934 30.6894 5.30344C31.3235 5.93755 31.7054 6.53563 32.044 7.3787C32.289 8.01281 32.5845 8.97118 32.6637 10.7222C32.7502 12.6173 32.7718 13.1866 32.7718 18C32.7718 22.8135 32.743 23.3827 32.6637 25.2778Z" fill="#666666"/>
<path d="M17.9929 8.7478C12.8768 8.7478 8.74066 12.8911 8.74066 18C8.74066 23.1161 12.884 27.2522 17.9929 27.2522C23.1017 27.2522 27.2451 23.1017 27.2451 18C27.2451 12.8839 23.109 8.7478 17.9929 8.7478ZM17.9929 24.0024C14.6782 24.0024 11.9905 21.3147 11.9905 18C11.9905 14.6854 14.6782 11.9976 17.9929 11.9976C21.3075 11.9976 23.9953 14.6854 23.9953 18C23.9953 21.3147 21.3075 24.0024 17.9929 24.0024Z" fill="#666666"/>
<path d="M27.6053 10.5493C28.7992 10.5493 29.767 9.58145 29.767 8.38756C29.767 7.19367 28.7992 6.22583 27.6053 6.22583C26.4114 6.22583 25.4436 7.19367 25.4436 8.38756C25.4436 9.58145 26.4114 10.5493 27.6053 10.5493Z" fill="#666666"/>
</svg>
